<?xml version="1.0" encoding="UTF-8" standalone="no"?>
<!-- Created with Inkscape (http://www.inkscape.org/) -->

<svg
   xmlns:dc="http://purl.org/dc/elements/1.1/"
   xmlns:cc="http://creativecommons.org/ns#"
   xmlns:rdf="http://www.w3.org/1999/02/22-rdf-syntax-ns#"
   xmlns:svg="http://www.w3.org/2000/svg"
   xmlns="http://www.w3.org/2000/svg"
   xmlns:sodipodi="http://sodipodi.sourceforge.net/DTD/sodipodi-0.dtd"
   xmlns:inkscape="http://www.inkscape.org/namespaces/inkscape"
   id="svg2"
   version="1.1"
   inkscape:version="0.92.3 (2405546, 2018-03-11)"
   width="150"
   height="229"
   viewBox="0 0 150 229"
   sodipodi:docname="logo-los.svg">
  <metadata
     id="metadata8">
    <rdf:RDF>
      <cc:Work
         rdf:about="">
        <dc:format>image/svg+xml</dc:format>
        <dc:type
           rdf:resource="http://purl.org/dc/dcmitype/StillImage" />
        <dc:title></dc:title>
      </cc:Work>
    </rdf:RDF>
  </metadata>
  <defs
     id="defs6" />
  <sodipodi:namedview
     pagecolor="#ffffff"
     bordercolor="#666666"
     borderopacity="1"
     objecttolerance="10"
     gridtolerance="10"
     guidetolerance="10"
     inkscape:pageopacity="0"
     inkscape:pageshadow="2"
     inkscape:window-width="1920"
     inkscape:window-height="1073"
     id="namedview4"
     showgrid="false"
     inkscape:zoom="2.9148856"
     inkscape:cx="-2.4031895"
     inkscape:cy="111.87319"
     inkscape:window-x="0"
     inkscape:window-y="27"
     inkscape:window-maximized="1"
     inkscape:current-layer="svg2" />
  <path
     style="fill:#dcdcdc"
     d="m 33.49889,224.30957 c -1.51601,-1.67518 -2.58618,-1.92163 -6.0735,-1.39867 -3.74186,0.56112 -4.50099,0.32684 -6.54017,-2.01842 -2.07975,-2.39192 -2.42524,-2.49145 -3.50805,-1.01063 -0.78874,1.07868 -1.91293,1.41668 -3.27453,0.98452 -2.55417,-0.81066 -2.657,-2.14063 -0.26452,-3.42105 3.02534,-1.61911 10.19108,-0.0151 10.19108,2.28115 0,0.76608 1.41467,1.03453 4.10141,0.77831 2.25578,-0.21512 5.12561,0.157 6.37741,0.82695 1.87586,1.00392 2.7253,0.92369 4.83154,-0.45637 2.14226,-1.40367 2.93022,-1.46985 4.87258,-0.40927 1.27438,0.69584 4.79206,1.1932 7.81706,1.10525 l 5.499999,-0.15992 -3.424591,1.49096 c -1.883528,0.82002 -3.908528,1.31925 -4.499998,1.1094 -0.59148,-0.20986 -2.11737,0.004 -3.39089,0.475 -1.42398,0.52678 -3.09232,0.44081 -4.33318,-0.22328 -1.55974,-0.83475 -2.41392,-0.72129 -3.76327,0.49986 -2.22074,2.00974 -2.40533,1.9916 -4.61838,-0.45379 z m 31.530309,-0.96651 c -0.825,-0.53316 -2.539058,-0.97627 -3.809017,-0.98469 -1.431934,-0.009 -2.048966,-0.43608 -1.624405,-1.12303 0.426259,-0.68971 2.163,-0.87133 4.602219,-0.48128 3.741375,0.59827 3.98246,0.47124 5.359254,-2.82389 1.879588,-4.49849 3.03492,-5.10348 6.015925,-3.15025 2.313409,1.5158 2.456024,1.49798 2.456024,-0.30682 0,-3.09083 2.564743,-3.19379 5.416284,-0.21742 1.725684,1.80123 2.418227,3.35506 1.991257,4.46773 -0.598594,1.55991 -0.804449,1.57043 -2.404011,0.12284 -1.608495,-1.45566 -1.792315,-1.41888 -2.282825,0.45683 -0.736334,2.81575 -2.108417,2.55636 -5.065198,-0.95758 -2.500945,-2.9722 -2.528046,-2.97855 -3.203829,-0.75 -0.680726,2.24485 -4.287234,6.76121 -5.375992,6.73225 -0.316627,-0.008 -1.250686,-0.45153 -2.075686,-0.98469 z m 26.904199,-1.18426 c -0.497309,-0.92634 -0.904199,-2.35134 -0.904199,-3.16667 0,-0.81532 -0.446737,-1.6324 -0.992748,-1.81574 -0.578573,-0.19426 -1.193206,-7.37981 -1.473232,-17.22323 -0.264266,-9.28944 -0.719348,-17.12876 -1.011293,-17.42071 -0.291946,-0.29194 -1.316492,0.23207 -2.276769,1.16447 -9.215236,8.94772 -25.918619,12.22763 -39.726767,7.80083 l -5.98081,-1.91741 -4.35559,13.13136 c -4.41579,13.31288 -6.33862,16.87553 -8.13725,15.0769 -1.0898,-1.0898 1.30243,-11.23493 4.93898,-20.94554 3.45231,-9.21867 3.49091,-10.52526 0.44316,-15 -3.72514,-5.46927 -5.20722,-9.27109 -6.27927,-16.10744 -1.2377,-7.89274 0.31313,-25.85727 2.89342,-33.51674 3.89221,-11.55385 13.40149,-22.92357 23.74862,-28.39491 3.897902,-2.06113 5.808784,-3.71048 6.022296,-5.198075 0.30765,-2.143474 0.112044,-2.176881 -11.999996,-2.049448 -15.30849,0.161064 -17.80661,-0.3018 -23.08524,-4.277345 -4.05861,-3.05671 -4.10766,-3.156534 -1.22751,-2.498628 1.65,0.376906 4.575,0.896867 6.5,1.155468 1.925,0.258601 7.31666,1.182746 11.98146,2.053654 10.36687,1.935474 13.001714,1.978727 14.081767,0.231164 C 55.726475,92.21485 54.311191,91.375661 49.2287,89.763875 45.54397,88.595356 39.6042,86.28367 36.0292,84.626794 32.4542,82.969919 27.71201,81.33819 25.491,81.000731 l -4.03819,-0.613562 -1.32218,4.477948 c -0.7272,2.462872 -1.67468,4.477949 -2.10551,4.477949 -0.80486,0 0.57356,-7.466812 1.73766,-9.412844 0.35769,-0.597936 -0.0874,-0.48921 -0.989,0.241613 -0.90163,0.730824 -2.39915,3.318324 -3.32781,5.75 -0.92867,2.431677 -2.07735,4.421231 -2.55263,4.421231 -1.17915,0 -1.15017,-0.16553 1.23651,-7.062036 1.15536,-3.338499 1.89266,-6.277989 1.63845,-6.532199 -0.25421,-0.25421 -1.762,2.120292 -3.35065,5.276671 -1.58865,3.156379 -3.5226596,5.930479 -4.2977996,6.164667 -1.00385,0.303285 -1.20989,-0.09398 -0.71613,-1.380704 0.38382,-1.000211 0.19418,-2.11492 -0.42487,-2.497518 -0.75914,-0.469174 -0.13216,-2.538612 1.95296,-6.446046 2.2231796,-4.166146 3.2428696,-5.307291 3.6933796,-4.133295 0.35569,0.926929 2.28149,1.887047 4.49498,2.240998 2.12997,0.340596 3.67962,0.931635 3.44367,1.31342 -0.23596,0.381784 0.89754,0.499457 2.51888,0.261494 1.62135,-0.237963 4.41008,0.254996 6.19719,1.095464 8.47269,3.984659 20.66632,8.553801 24.499289,9.180261 2.3375,0.38204 4.25,1.105065 4.25,1.606721 0,0.501656 0.3375,0.909257 0.75,0.905779 1.059551,-0.0089 4.672352,-6.286746 4.312514,-7.493677 -1.200626,-4.02702 -0.745046,-11.029239 0.870684,-13.382336 9.902124,-14.421128 12.365941,-18.750188 14.579896,-25.617664 0.886552,-2.75 3.143053,-9.74593 5.014446,-15.54651 1.871393,-5.800581 4.551036,-13.143481 5.954762,-16.317555 1.403726,-3.1740736 2.318,-6.1500352 2.03172,-6.613247 -0.66181,-1.0708306 0.440813,-4.0226874 1.502615,-4.0226874 0.441463,0 1.312225,3.2625 1.935027,7.25 0.622802,3.9874994 1.795918,8.7434044 2.606923,10.5686774 0.811006,1.825273 1.26476,3.658136 1.008341,4.07303 -0.256418,0.414893 -0.06165,3.646488 0.43282,7.181322 0.494469,3.534833 1.385303,10.92697 1.979633,16.42697 1.48731,13.763751 1.70651,15.485483 2.4939,19.588344 0.45989,2.396359 0.16348,4.84525 -0.89232,7.372124 -1.0286,2.461791 -1.58096,6.811686 -1.58096,12.450214 0,6.622744 -0.46057,9.569815 -1.953084,12.497295 -2.416277,4.739377 -4.93446,7.592017 -6.701905,7.592017 -0.739756,0 -1.345012,0.47656 -1.345012,1.05902 0,0.58246 -0.430835,0.79274 -0.957412,0.4673 -0.526577,-0.32544 -1.651577,0.75065 -2.5,2.39132 -1.942716,3.7568 -1.95533,4.6698 -0.04259,3.08236 0.825,-0.68469 1.5,-1.81664 1.5,-2.51546 0,-1.54693 2.489044,-2.61784 4.389492,-1.88857 0.764682,0.29343 1.17564,1.35096 0.913915,2.3518 -0.261567,1.00024 0.220214,3.16412 1.070626,4.80864 0.850411,1.64451 1.33639,3.19983 1.079954,3.45627 -0.256437,0.25644 0.507157,1.32599 1.696874,2.37678 2.157542,1.90561 2.161202,1.90409 1.419907,-0.58946 -0.408769,-1.375 -0.73431,-3.26191 -0.723425,-4.19312 0.01353,-1.15746 -0.512851,-1.50637 -1.663776,-1.10282 -1.341368,0.47031 -1.439007,0.32599 -0.480371,-0.71008 0.864513,-0.93433 0.91006,-1.8481 0.161809,-3.24622 -1.817993,-3.39695 1.647607,-0.72173 4.922768,3.80005 2.53682,3.50242 3.00083,5.18666 3.44377,12.5 0.73933,12.20697 -2.29135,33.76691 -5.356644,38.10656 -1.031192,1.4599 -1.874897,3.11536 -1.874897,3.6788 0,0.56343 -1.515635,2.63147 -3.368077,4.59563 -2.451653,2.59951 -2.923096,3.5712 -1.732666,3.5712 1.226767,0 1.595177,0.85543 1.474393,3.42347 -0.08856,1.88291 -0.517369,4.00006 -0.952908,4.70477 -1.804663,2.92001 -2.105125,13.47184 -0.702399,24.66729 1.118472,8.92675 1.660286,10.22584 3.498324,8.3878 1.726593,-1.72659 2.783333,-1.45012 2.783333,0.72819 0,1.28144 0.576832,1.80109 1.750001,1.57651 0.9625,-0.18426 2.07167,-0.36944 2.46482,-0.41152 1.57785,-0.16889 2.68396,-4.12494 3.80643,-13.61384 0.64819,-5.47947 1.20857,-10.52517 1.2453,-11.21267 0.1172,-2.19366 1.7459,-1.34344 2.87343,1.5 0.84412,2.12872 0.70317,4.2902 -0.6239,9.56752 -0.94291,3.74963 -1.47724,7.05465 -1.18741,7.34448 0.72772,0.72772 4.8227,-6.06099 7.55894,-12.5313 1.98413,-4.69183 3.15227,-9.20709 4.3025,-16.6307 0.17044,-1.1 0.94341,-2.49589 1.71771,-3.10198 1.14453,-0.8959 0.91076,-1.22674 -1.25,-1.76905 -3.283,-0.82398 -3.52912,-3.8065 -0.48112,-5.8303 l 2.1767,-1.44527 -2.1767,-2.1767 c -3.04514,-3.04514 -2.71949,-4.1767 1.20198,-4.1767 2.82072,0 3.5865,-0.50173 4.63715,-3.03822 1.67611,-4.04648 4.34621,-5.45688 6.41472,-3.38837 0.8632,0.8632 1.56945,2.2123 1.56945,2.99802 0,0.85543 0.99851,1.42857 2.4888,1.42857 2.08909,0 2.46183,0.44166 2.32089,2.75 -0.0923,1.5125 -0.82356,3.52812 -1.62491,4.47915 -1.2847,1.52465 -1.26352,1.8034 0.1791,2.35699 0.89987,0.34531 1.63612,1.22328 1.63612,1.95104 0,1.01683 -0.75099,1.10783 -3.2434,0.39301 -4.13696,-1.18646 -5.02403,-1.17191 -4.2566,0.0698 0.33992,0.55 1.49148,1 2.55902,1 2.28396,0 2.62343,2.80089 0.44098,3.63837 -0.85503,0.32811 -1.5,1.81954 -1.5,3.46862 0,1.59116 -0.42448,2.89302 -0.9433,2.89302 -1.36076,0 -4.0567,-4.13525 -4.0567,-6.22251 0,-5.78408 -4.83545,2.65449 -7.48773,13.0672 -0.88885,3.48957 -2.49274,8.56873 -3.56418,11.28702 -1.07145,2.71828 -1.94809,5.15982 -1.94809,5.42563 0,0.26582 1.78207,-0.42584 3.96016,-1.53702 4.92868,-2.51442 5.03984,-2.51018 5.03984,0.19212 0,1.21683 -1.2375,3.21262 -2.75,4.43508 l -2.75,2.22266 5.75,-0.57499 c 4.89621,-0.48962 5.75,-0.3315 5.75,1.06491 0,0.90194 -0.525,1.6399 -1.16667,1.6399 -0.64166,0 -0.8489,0.31776 -0.46052,0.70614 0.38838,0.38838 2.29552,-0.14979 4.2381,-1.19593 2.86749,-1.54425 3.89221,-1.6771 5.44695,-0.70615 1.05325,0.65777 3.72111,1.19594 5.92857,1.19594 2.20746,0 4.01357,0.42243 4.01357,0.93873 0,1.36259 -8.94374,2.51753 -10.15049,1.31078 -0.66684,-0.66684 -2.64485,-0.37519 -5.93555,0.87518 -6.49266,2.46702 -7.24562,2.3906 -6.65943,-0.67584 0.459,-2.40112 0.30414,-2.50983 -2.63342,-1.8486 -4.44294,1.00009 -12.91794,1.09387 -14.24464,0.15764 -0.68294,-0.48194 -1.76348,0.18382 -2.75542,1.6977 -1.47614,2.25288 -2.2131,2.46928 -7.722264,2.26749 -4.526263,-0.16579 -6.322603,-0.65563 -6.994588,-1.90734 z m 25.363672,-6.35179 c 2.05267,-1.39483 3.73213,-2.83483 3.73213,-3.2 0,-0.36517 -0.54,-0.12395 -1.2,0.53605 -0.66,0.66 -2.21917,1.2 -3.46482,1.2 -1.24565,0 -2.74648,0.9 -3.33518,2 -1.42941,2.67088 -0.22983,2.52021 4.26787,-0.53605 z m -85.33874,-8.96395 c 0,-0.55 -0.64311,0.125 -1.42913,1.5 -0.78602,1.375 -1.42913,2.95 -1.42913,3.5 0,0.55 0.64311,-0.125 1.42913,-1.5 0.78602,-1.375 1.42913,-2.95 1.42913,-3.5 z m 5.94969,-19 c -0.0201,-1.2978 -0.5042,-0.77116 -1.37882,1.5 -1.76466,4.58236 -1.7359,7.36993 0.0361,3.5 0.75552,-1.65 1.35974,-3.9 1.3427,-5 z m 20.850346,2.89583 c -0.332292,-0.33229 -1.194792,-0.36781 -1.916667,-0.0789 -0.797733,0.31922 -0.560776,0.55618 0.604167,0.60416 1.054166,0.0434 1.644791,-0.19293 1.3125,-0.52522 z m 10.721403,-1.97927 c 2.379926,-0.30383 5.560518,-1.78653 8,-3.72938 2.227187,-1.77377 5.337209,-3.88197 6.911162,-4.68488 1.573952,-0.80292 3.250314,-2.4819 3.725249,-3.73108 0.474934,-1.24917 1.351213,-2.27122 1.947285,-2.27122 0.596072,0 0.760064,0.5625 0.364426,1.25 -0.395639,0.6875 -0.459696,1.025 -0.142351,0.75 0.317346,-0.275 0.663957,-0.95 0.770247,-1.5 0.10629,-0.55 1.04379,-2.19447 2.083333,-3.65437 1.039544,-1.4599 1.890079,-2.84973 1.890079,-3.0885 0,-0.23878 -3.2625,-0.39451 -7.25,-0.34608 -8.594054,0.10439 -21.695605,-1.70661 -27.849502,-3.84957 -2.420274,-0.8428 -7.775497,-1.57177 -11.900497,-1.61993 -4.125,-0.0482 -9.81124,-0.41745 -12.63608,-0.82066 l -5.13609,-0.7331 0.32029,5.90945 c 0.30403,5.60934 0.61535,6.2414 6.13052,12.44624 8.98589,10.10958 11.1929,11.23945 20.821359,10.65938 4.4,-0.26508 9.777757,-0.70892 11.95057,-0.9863 z m 13.980142,-6.31918 c -0.263082,-0.26308 -1.255117,0.33267 -2.204522,1.3239 -1.649287,1.72194 -1.627977,1.74325 0.478332,0.47833 1.212486,-0.72815 1.989272,-1.53915 1.72619,-1.80223 z m 48.231569,-2.34738 c -0.27741,-0.6875 -0.50439,-0.125 -0.50439,1.25 0,1.375 0.22698,1.9375 0.50439,1.25 0.27741,-0.6875 0.27741,-1.8125 0,-2.5 z m -6.66228,-3.75 c 0,-0.55 -0.47656,-1 -1.05902,-1 -0.58246,0 -0.7809,0.45 -0.44098,1 0.33992,0.55 0.81648,1 1.05902,1 0.24254,0 0.44098,-0.45 0.44098,-1 z m 13,-8.45636 c 0,-1.10734 -2.39773,-0.49367 -4.10382,1.05032 -0.96872,0.87667 -1.50331,2.26627 -1.18799,3.08798 0.45895,1.19601 1.04393,0.9865 2.93256,-1.05031 1.29759,-1.39939 2.35925,-2.78898 2.35925,-3.08799 z m -12.63837,2.95636 c -0.6086,-1.58598 -2.36163,-2.08084 -2.36163,-0.66667 0,1.05752 1.09309,2.16667 2.13528,2.16667 0.44107,0 0.54293,-0.675 0.22635,-1.5 z m 6.61613,-6.19098 c 0.0273,-1.46213 -1.67011,-2.62926 -2.29106,-1.57533 -0.24833,0.42147 -0.75538,2.34131 -1.12677,4.26631 l -0.67527,3.5 2.03543,-2.5 c 1.11949,-1.375 2.04544,-3.03594 2.05767,-3.69098 z m -102.29465,2.50348 c -0.31922,-0.79773 -0.55618,-0.56078 -0.60416,0.60417 -0.0434,1.05416 0.19292,1.64479 0.52522,1.3125 0.33229,-0.3323 0.36781,-1.1948 0.079,-1.91667 z m 68.375651,-3.00796 c 0.384622,-0.7175 1.03049,-2.38453 1.435262,-3.70451 l 0.735947,-2.39997 -3.019355,2.14997 c -1.660646,1.18248 -3.62489,2.16428 -4.364986,2.18177 -0.740097,0.0175 -2.129303,0.62681 -3.087126,1.35403 -1.075049,0.81622 -3.753857,1.20828 -7,1.0245 -4.427513,-0.25068 -4.705406,-0.17525 -1.758504,0.47731 5.235958,1.15944 16.230842,0.46136 17.058762,-1.0831 z m -28.308762,-0.49387 c -0.9625,-0.25152 -2.5375,-0.25152 -3.5,0 -0.9625,0.25153 -0.175,0.45733 1.75,0.45733 1.925,0 2.7125,-0.2058 1.75,-0.45733 z m 12.166667,-2.95135 c 0.229166,-0.19762 0.137623,-0.63836 -0.20343,-0.97942 -0.908429,-0.90842 -5.713237,0.48611 -5.713237,1.6582 0,0.87921 4.740715,0.33534 5.916667,-0.67878 z M 51.5292,160.34306 c -0.33992,-0.55 -1.26648,-1 -2.05902,-1 -0.79254,0 -1.44098,0.45 -1.44098,1 0,0.55 0.92656,1 2.05902,1 1.13246,0 1.7809,-0.45 1.44098,-1 z m 4.499999,-0.5 c 0,-0.825 -0.423442,-1.5 -0.940983,-1.5 -1.260978,0 -2.164096,1.56159 -1.365164,2.36052 1.126184,1.12618 2.306147,0.68589 2.306147,-0.86052 z m 7,0.5 c 0,-0.55 -0.873442,-1 -1.940983,-1 -1.067541,0 -2.219098,0.45 -2.559017,1 -0.350523,0.56716 0.489616,1 1.940983,1 1.407459,0 2.559017,-0.45 2.559017,-1 z m 6.504365,-0.007 c 0.34232,-0.55389 -0.07854,-1.27604 -0.935239,-1.60479 -0.856702,-0.32874 -1.308666,-1.00057 -1.004365,-1.49293 0.3043,-0.49243 0.09255,-0.89528 -0.47056,-0.89528 -0.936449,0 -3.094201,3.09225 -3.094201,4.43426 0,0.99463 4.857603,0.60516 5.504365,-0.44132 z m 25.745635,-0.68181 c 2.935434,-1.45443 3.465049,-2.75123 1.595492,-3.90668 -0.776669,-0.48001 -0.887836,-0.25387 -0.339675,0.69098 0.448158,0.77248 0.441705,1.06603 -0.01434,0.65233 -0.456046,-0.4137 -1.765692,0.0178 -2.910325,0.95881 -1.144634,0.94105 -0.567347,0.15453 1.282859,-1.74782 2.160393,-2.22127 3.531931,-3.01157 3.833333,-2.20881 0.765557,2.039 3.022667,1.42438 3.672367,-1 0.9193,-3.43035 0.74634,-5.75 -0.42873,-5.75 -0.58246,0 -0.80012,0.41891 -0.48369,0.9309 0.31644,0.512 0.11799,1.21356 -0.44098,1.55902 -0.55897,0.34546 -1.01631,0.0818 -1.01631,-0.58589 0,-0.79125 -0.636832,-0.63768 -1.828742,0.44098 -2.144987,1.94119 -4.575481,2.21116 -3.646078,0.40499 0.353768,-0.6875 -0.732569,0.325 -2.414082,2.25 -1.681514,1.925 -3.069403,4.0625 -3.084198,4.75 -0.0148,0.6875 -0.509044,1.25 -1.09833,1.25 -0.589285,0 -1.767816,0.69639 -2.618957,1.54753 -1.396705,1.3967 -1.121726,1.527 2.821429,1.33687 2.402926,-0.11586 5.606457,-0.8238 7.118957,-1.57321 z m -50.249999,0.0561 c 0,-0.34799 -0.96885,-1.47299 -2.15301,-2.5 -1.18416,-1.02702 -1.74666,-1.86762 -1.25,-1.86801 0.49666,-3.8e-4 0.96791,-1.12538 1.04722,-2.5 0.16765,-2.90539 -0.22013,-3.06623 -2.3229,-0.96346 -0.84471,0.84471 -1.30469,2.41971 -1.02219,3.5 0.4266,1.63132 0.003,1.96417 -2.49973,1.96417 -2.26771,0 -2.87093,-0.37118 -2.43776,-1.5 0.31658,-0.825 0.0555,-1.5 -0.58011,-1.5 -0.63564,0 0.16599,-1.40832 1.78139,-3.12961 2.09669,-2.23412 2.36162,-2.83289 0.9259,-2.09262 -2.93,1.51073 -6.12025,5.22223 -4.48881,5.22223 0.92386,0 0.78908,0.57558 -0.45726,1.95278 -1.70297,1.88175 -1.68133,1.97158 0.59501,2.47004 6.53138,1.4302 12.86225,1.89508 12.86225,0.94448 z m 28.074999,-0.6423 c -0.123693,-1.1957 -1.495288,-0.96414 -1.925,0.325 -0.22,0.66 0.14,1.02 0.8,0.8 0.66,-0.22 1.16625,-0.72625 1.125,-1.125 z m 8.175,-1.15111 c 1.5125,-0.3366 2.75,-1.1059 2.75,-1.70957 0,-0.67819 -0.859733,-0.83112 -2.25,-0.40022 -1.2375,0.38355 -3.2625,0.9385 -4.5,1.23321 -1.2375,0.29471 -2.25,0.96371 -2.25,1.48665 0,0.52295 0.7875,0.73732 1.75,0.47637 0.9625,-0.26094 2.9875,-0.74984 4.5,-1.08644 z m -26.005055,-1.41883 c 1.259339,-1.25934 -0.08392,-5.38304 -1.579804,-4.84987 -0.640828,0.2284 -1.07575,1.49067 -0.96649,2.80504 0.19819,2.38413 0.19612,2.3846 -0.87678,0.19811 -1.3973,-2.8476 -3.3712,-3.55629 -4.8712,-1.7489 -0.74374,0.89615 -0.80286,1.44056 -0.15645,1.44056 0.57151,0 1.27116,-0.5625 1.55478,-1.25 0.28362,-0.6875 0.26779,0.19787 -0.0352,1.96749 -0.53724,3.13809 -0.47028,3.20729 2.71327,2.80439 1.79526,-0.2272 3.693287,-0.84227 4.217838,-1.36682 z m 6.755055,0.13214 c 0,-1.46258 -0.218927,-1.52416 -2.418213,-0.68021 -2.245707,0.86176 -1.962244,2.29737 0.418213,2.11806 1.1,-0.0829 2,-0.7299 2,-1.43785 z m 5.503323,-2.29258 c 0.694292,-1.12338 -0.567807,-1.29084 -2.921536,-0.38763 -0.869983,0.33384 -1.581787,1.24968 -1.581787,2.03518 0,1.10468 0.440423,1.19249 1.944306,0.38764 1.069369,-0.57231 2.220927,-1.48815 2.559017,-2.03519 z m -6.503323,-1.63679 c 0,-0.3145 -0.7875,-0.29756 -1.75,0.0376 -1.472896,0.51295 -1.444869,0.37318 0.176999,-0.88267 1.05985,-0.82067 1.633224,-1.7859 1.274166,-2.14496 -1.038566,-1.03853 -3.701165,1.68783 -3.701165,3.78983 0,1.60286 0.324014,1.73933 2,0.84237 1.1,-0.5887 2,-1.32768 2,-1.64217 z m 26.446947,-1.71319 c -0.365069,-1.45455 -1.064979,-2.64464 -1.555355,-2.64464 -0.490376,0 -0.825474,-0.3375 -0.744662,-0.75 0.08081,-0.4125 -0.206181,-2.69051 -0.637761,-5.06224 -0.504596,-2.77299 -1.129428,-3.9675 -1.750479,-3.34645 -1.010125,1.01012 0.162485,8.19097 2.222228,13.6085 1.365167,3.59066 3.43924,2.07241 2.466029,-1.80517 z m -15.446947,1.85536 c 0,-0.825 -0.45,-1.5 -1,-1.5 -0.55,0 -1,0.675 -1,1.5 0,0.825 0.45,1.5 1,1.5 0.55,0 1,-0.675 1,-1.5 z m 10.929715,-0.25 c -0.03866,-0.9625 -0.392344,-2.56686 -0.785971,-3.56524 -0.678548,-1.72105 -0.810921,-1.71001 -2.550996,0.21275 -1.009421,1.1154 -1.569857,2.71976 -1.245414,3.56524 0.833697,2.17258 4.671027,1.99442 4.582381,-0.21275 z M 30.0292,150.28403 c 0,-2.00979 -1.459,-2.62535 -2.44423,-1.03122 -0.79864,1.29223 0.4744,4.18962 1.54901,3.52548 0.49237,-0.3043 0.89522,-1.42672 0.89522,-2.49426 z m 37.561836,0.28752 c -0.335201,-0.3352 -1.386242,0.20383 -2.335647,1.19784 -1.650222,1.72775 -1.6234,1.75457 0.609456,0.60945 1.284606,-0.6588 2.061392,-1.47209 1.726191,-1.80729 z m -1.561837,-3.32447 c 0,-2.78005 -1.772199,-3.1982 -3.093225,-0.72984 -0.91858,1.71639 -0.920524,2.32123 -0.0084,2.62526 0.894396,0.29813 0.872472,0.8005 -0.08937,2.0478 -0.884539,1.14705 -0.591336,1.06987 0.958262,-0.25224 1.227988,-1.04774 2.232733,-2.70868 2.232733,-3.69098 z m 9.335774,1.5286 c -0.750995,-1.95706 -2.335774,-0.77051 -2.335774,1.74883 0,1.68294 0.265637,1.84297 1.440559,0.86787 0.792308,-0.65756 1.195154,-1.83507 0.895215,-2.6167 z m 14.235655,-0.004 c -0.367821,-1.46551 -0.893765,-2.43957 -1.168765,-2.16457 -0.275,0.275 -0.199056,1.69906 0.168765,3.16457 0.36782,1.46551 0.893764,2.43957 1.168764,2.16457 0.275,-0.275 0.199056,-1.69906 -0.168764,-3.16457 z m -34.571429,-1.1188 c 0,-1.42968 -0.234748,-1.40736 -2,0.19017 -1.099999,0.99549 -1.999999,2.20606 -1.999999,2.69017 0,0.48411 0.9,0.39853 1.999999,-0.19017 1.1,-0.5887 2,-1.79928 2,-2.69017 z m -5.999999,0.72506 c 1.375,-1.05636 2.5,-2.35124 2.5,-2.87753 0,-0.52629 2.539568,-2.68949 5.643486,-4.80712 8.600064,-5.86735 12.91582,-10.03211 12.234818,-11.80678 -0.441657,-1.15094 0.07869,-1.54346 2.046091,-1.54346 1.612445,0 2.876841,-0.68049 3.25164,-1.75 0.337296,-0.9625 1.939968,-3.16454 3.561493,-4.89343 2.866483,-3.05628 2.901481,-3.21478 1.262271,-5.71653 -1.729001,-2.63879 -9.666647,-7.64004 -12.125753,-7.64004 -0.755726,0 -1.374833,-0.3375 -1.375793,-0.75 -0.0023,-0.98755 -10.20786,-1.40827 -11.498254,-0.47401 -4.808729,3.48157 -8.703859,15.98048 -8.443099,27.09265 0.0856,3.64725 -0.17517,8.99386 -0.57947,11.88136 -0.80059,5.71779 -0.27825,6.20489 3.52257,3.28489 z m 21.999999,0.52413 c 0,-0.79254 -0.402847,-1.68996 -0.895215,-1.99426 -1.029416,-0.63621 -2.270652,1.93604 -1.369217,2.83747 1.073023,1.07303 2.264432,0.62938 2.264432,-0.84321 z M 35.0292,144.52948 c 0,-1.2558 -0.29285,-1.18151 -1.4682,0.37244 -1.92085,2.53959 -1.9402,4.02496 -0.0318,2.44113 0.825,-0.68469 1.5,-1.9508 1.5,-2.81357 z m 44.894807,2.44032 c 1.638932,-1.97479 0.32152,-5.05118 -1.511591,-3.52983 -1.523561,1.26444 -1.898819,4.90308 -0.505662,4.90308 0.482656,0 1.39042,-0.61796 2.017253,-1.37325 z M 43.0292,142.73606 c 0,-3.95311 -0.24838,-4.52049 -1.75,-3.99755 -1.65772,0.57731 -1.65733,0.5373 0.008,-0.75875 1.21572,-0.94642 2.0647,-3.79094 2.75395,-9.22723 0.54804,-4.32246 1.26786,-8.71423 1.59961,-9.75948 0.39527,-1.24538 0.22156,-1.6646 -0.50395,-1.21621 -0.6089,0.37633 -1.10711,1.34852 -1.10711,2.16041 0,0.81189 -0.71379,2.56554 -1.5862,3.89701 -0.8724,1.33146 -1.31506,2.85953 -0.98368,3.39572 0.33137,0.53618 0.17116,1.24146 -0.35603,1.56728 -0.87256,0.53927 -1.73401,4.58801 -2.49965,11.74821 -0.1674,1.5655 0.17686,2.61726 0.8183,2.5 0.60899,-0.11133 1.10726,0.47258 1.10726,1.29758 0,1.24457 1.26637,2.92444 2.25,2.98469 0.1375,0.008 0.25,-2.05783 0.25,-4.59168 z m 18.999999,0.57067 c 2.475,-2.17308 4.650935,-3.50109 4.83541,-2.95113 0.184476,0.54995 0.746976,0.74555 1.25,0.43466 1.093899,-0.67606 1.238668,-5.45383 0.16459,-5.4319 -1.059092,0.0216 -3.927808,1.95075 -2.928571,1.96938 1.02843,0.0192 -0.744815,1.71118 -5.571429,5.3162 -3.435318,2.56586 -4.849987,4.76164 -3,4.65647 0.4125,-0.0234 2.775,-1.82061 5.25,-3.99368 z M 39.0292,145.34305 c 0,-0.55 -0.19844,-1 -0.44098,-1 -0.24254,0 -0.7191,0.45 -1.05902,1 -0.33992,0.55 -0.14148,1 0.44098,1 0.58246,0 1.05902,-0.45 1.05902,-1 z m 29.999999,-1.55902 c 0,-0.79254 -0.45,-1.44098 -1,-1.44098 -0.55,0 -1,0.92656 -1,2.05902 0,1.13246 0.45,1.7809 1,1.44098 0.55,-0.33992 1,-1.26648 1,-2.05902 z m 4.846042,-0.47146 c 0.302121,-2.07253 0.143467,-2.2057 -1.25,-1.04923 -1.88703,1.5661 -2.145217,4.42724 -0.346042,3.83472 0.6875,-0.22642 1.405719,-1.47989 1.596042,-2.78549 z m 18.515584,1.53048 c -0.316582,-0.825 -0.752459,-1.5 -0.968615,-1.5 -0.216156,0 -0.393011,0.675 -0.393011,1.5 0,0.825 0.435877,1.5 0.968615,1.5 0.532739,0 0.709594,-0.675 0.393011,-1.5 z m 2.088212,-5.16512 c -0.979224,-2.65919 -2.156029,-5.26238 -2.615122,-5.78488 -1.470997,-1.67416 -0.904963,2.9047 0.629979,5.09613 0.805582,1.15013 1.214494,2.34135 0.908694,2.64715 -0.305801,0.3058 -0.245212,1.53521 0.134642,2.73202 0.467584,1.47323 1.018714,1.84795 1.706429,1.16024 0.687714,-0.68771 0.440762,-2.57732 -0.764622,-5.85066 z m 8.550163,5.76719 c 0,-0.49386 -1.11958,-2.85636 -2.48796,-5.25 -1.368371,-2.39364 -2.493371,-3.62526 -2.499996,-2.73693 -0.0066,0.88833 0.918825,2.79855 2.056556,4.24494 1.54766,1.96753 1.67358,2.47821 0.5,2.02787 -1.566671,-0.60119 -2.162772,0.68455 -0.901934,1.94538 0.976824,0.97683 3.333334,0.81334 3.333334,-0.23126 z m -71.17352,-2.66539 c 3.57713,-1.78451 4.13318,-2.48383 4.77078,-6.00001 0.40549,-2.23614 -0.0676,-1.98089 -4.06921,2.1954 -5.82538,6.0797 -5.88244,6.38917 -0.70157,3.80461 z m 47.218674,-5.81791 c -1.433706,-3.77094 -3.045155,-2.362 -3.045155,2.66247 l 0,4.1632 2.043282,-2.04328 c 1.704364,-1.70436 1.870544,-2.49761 1.001873,-4.78239 z m 7.637959,4.19373 c -0.319226,-0.79773 -0.556183,-0.56078 -0.604167,0.60417 -0.04342,1.05416 0.192928,1.64479 0.52522,1.3125 0.332291,-0.3323 0.367818,-1.1948 0.07895,-1.91667 z m -12.233809,-2.54099 c 0.268359,-0.69933 0.199982,-1.27151 -0.151949,-1.27151 -0.989074,0 -4.297356,3.2052 -4.297356,4.16346 0,1.17751 3.847302,-1.32315 4.449305,-2.89195 z m 16.401264,0.72968 c -1.08822,-3.12167 -2.850569,-3.18896 -2.850569,-0.10884 0,2.09729 0.850078,3.10765 2.614647,3.10765 0.989304,0 1.04307,-0.68343 0.235922,-2.99881 z m 13.149432,0.99881 c 0,-0.55 -0.45,-1 -1,-1 -0.55,0 -1,0.45 -1,1 0,0.55 0.45,1 1,1 0.55,0 1,-0.45 1,-1 z m -69.93455,-7.25442 c 1.54471,-4.89125 1.72216,-5.08276 2.62701,-2.83511 0.80926,2.01017 1.07622,2.13472 1.60759,0.75 0.36077,-0.94015 0.14975,-1.66047 -0.48642,-1.66047 -0.68699,0 -0.5396,-0.68003 0.37928,-1.75 2.61231,-3.04185 3.07895,-4.86962 0.54222,-2.12381 -1.7539,1.89847 -2.86269,2.38193 -4.00137,1.74469 -1.71529,-0.95992 -2.93442,1.81702 -4.22737,9.62912 -0.93204,5.63149 1.35772,3.21604 3.55906,-3.75442 z m 48.466498,1.35508 c -0.366698,-1.15536 -1.0864,-2.10066 -1.599337,-2.10066 -1.076249,0 -1.216413,2.09685 -0.299829,4.48543 0.930148,2.42393 2.714321,0.18356 1.899166,-2.38477 z m 3.072218,-0.82983 c -1.016516,-1.01651 -1.855248,0.51389 -1.021218,1.86338 0.630035,1.01942 0.865577,1.02021 1.204302,0.004 0.231595,-0.69479 0.149207,-1.53513 -0.183084,-1.86742 z m -11.604167,-1.61837 c 0,-0.47654 -0.711804,-0.59329 -1.581787,-0.25945 -0.869984,0.33385 -1.769984,0.60699 -2,0.60699 -0.230017,0 -0.418213,0.67881 -0.418213,1.50847 0,1.25815 0.331894,1.30121 2,0.25946 1.1,-0.68696 2,-1.63892 2,-2.11547 z m 21.204188,-1.41773 c -0.54553,-0.18184 -0.762159,-1.20905 -0.481399,-2.28268 0.280761,-1.07363 0.03455,-1.95205 -0.547141,-1.95205 -1.704293,0 -2.31898,1.7778 -1.282523,3.70932 0.528484,0.98488 1.297902,2.69068 1.709818,3.79068 0.694722,1.85522 0.779495,1.82139 1.171028,-0.46732 0.232149,-1.35703 -0.02425,-2.61611 -0.569783,-2.79795 z m 3.795812,4.32429 c 0,-0.24254 -0.45,-0.7191 -1,-1.05902 -0.55,-0.33992 -1,-0.14148 -1,0.44098 0,0.58246 0.45,1.05902 1,1.05902 0.55,0 1,-0.19844 1,-0.44098 z m 5.000001,-1.05902 c 0,-0.825 -0.49814,-1.5 -1.10699,-1.5 -0.60884,0 -0.84797,-0.675 -0.53138,-1.5 0.31658,-0.825 0.0846,-1.5 -0.51546,-1.5 -0.72386,0 -0.67565,-0.50054 0.14326,-1.48727 0.67888,-0.81799 0.92684,-2.28049 0.55103,-3.25 -0.6525,-1.68328 -0.74187,-1.6832 -1.98273,0.002 -1.077123,1.46263 -1.023481,2.53192 0.31353,6.25 1.5937,4.43167 3.12874,5.89643 3.12874,2.98527 z m -26.232737,-4.69821 c -0.499469,-1.49841 -2.233701,-1.0686 -2.589913,0.64188 -0.222591,1.06885 0.178156,1.35714 1.292264,0.92962 0.888203,-0.34084 1.472145,-1.04801 1.297649,-1.5715 z m 7.732736,1.19821 c 0.339919,-0.55 0.141476,-1 -0.440983,-1 -0.582459,0 -1.059017,0.45 -1.059017,1 0,0.55 0.198442,1 0.440983,1 0.242541,0 0.719098,-0.45 1.059017,-1 z m 13.5,-1 c 0,-0.55 -0.476558,-1 -1.059017,-1 -0.582459,0 -0.780902,0.45 -0.440983,1 0.339919,0.55 0.816476,1 1.059017,1 0.242541,0 0.440983,-0.45 0.440983,-1 z m -10.5,-1 c 0.339919,-0.55 0.141476,-1 -0.440983,-1 -0.582459,0 -1.059017,0.45 -1.059017,1 0,0.55 0.198442,1 0.440983,1 0.242541,0 0.719098,-0.45 1.059017,-1 z m -4.584425,-7.0829 c -1.725507,-1.10386 -4.915575,2.31661 -4.915575,5.27061 0,1.70225 0.42487,1.54127 3.165575,-1.19944 2.548859,-2.54886 2.889793,-3.342 1.75,-4.07117 z m 1.21198,4.3329 c 1.243871,-1.58606 1.208501,-1.62143 -0.377555,-0.37756 -0.9625,0.75485 -1.75,1.54235 -1.75,1.75 0,0.82304 0.821186,0.29331 2.127555,-1.37244 z m 12.072445,-1.45 c -0.933333,-0.93333 -1.2,-0.66667 -1.2,1.2 0,1.86667 0.266667,2.13333 1.2,1.2 0.933333,-0.93333 0.933333,-1.46667 0,-2.4 z m -4.2,-0.93092 c 0,-0.48731 -0.870892,-0.34215 -1.935317,0.3226 -1.064424,0.66474 -1.699361,1.59041 -1.410972,2.05703 0.589239,0.95341 3.346289,-1.0072 3.346289,-2.37963 z M 40.64591,119.81257 c -0.39733,1.08323 -0.36113,1.60839 0.0804,1.16702 0.44157,-0.44138 0.82366,-1.88245 0.84908,-3.2024 l 0.0462,-2.3999 -2.29622,2.1572 c -2.91815,2.74145 -3.03401,4.76634 -0.12666,2.21355 2.13797,-1.87725 2.15904,-1.87631 1.44714,0.0645 z m 49.068838,-1.64383 c 1.361308,-1.27889 2.314451,-3.33919 2.314451,-5.00288 l 0,-2.82857 -3.582311,3.96519 c -1.970271,2.18085 -3.293714,4.43215 -2.940983,5.00288 0.922285,1.49229 1.607453,1.30725 4.208843,-1.13662 z m -6.125394,-6.37361 c 0.115638,-2.16475 -0.282966,-2.45208 -3.401675,-2.45208 l -3.532662,0 2.864188,2.98957 c 3.132616,3.26974 3.871988,3.17211 4.070149,-0.53749 z M 48.5292,110.34305 c 0.33992,-0.55 0.16803,-1 -0.38197,-1 -0.55,0 -1.27811,0.45 -1.61803,1 -0.33992,0.55 -0.16803,1 0.38197,1 0.55,0 1.27811,-0.45 1.61803,-1 z m 30.499999,-4.92054 c 0,-1.06835 -5.863734,-2.54906 -6.71669,-1.6961 -0.604687,0.60468 3.335995,2.44521 5.46669,2.55325 0.6875,0.0349 1.25,-0.35086 1.25,-0.85715 z m 8.531456,-1.69203 c 1.353599,-0.88691 3.753232,-3.36961 5.332516,-5.517094 2.63363,-3.58118 2.79835,-4.295699 1.98901,-8.627886 -0.48533,-2.597843 -0.655949,-5.31352 -0.379154,-6.034836 0.276795,-0.721316 0.05842,-1.036554 -0.485282,-0.700529 -0.5437,0.336025 -0.988546,-0.03435 -0.988546,-0.823062 0,-1.528039 -4.098142,-2.684017 -9.515303,-2.684017 -3.891926,0 -16.071929,5.822664 -19.20021,9.178682 l -2.215512,2.3768 2.353809,5.080455 2.353809,5.080447 5.965928,0.67497 c 3.281261,0.37123 6.819027,1.32073 7.861704,2.11 2.473311,1.87221 3.932636,1.84821 6.927231,-0.11393 z m -23.331456,-1.58743 c -0.66,-0.66 -1.214312,-2.1225 -1.231803,-3.249997 -0.03599,-2.319657 -2.356473,-5.828388 -3.258219,-4.926642 -0.325747,0.325747 -0.217173,1.331252 0.241276,2.234456 0.458449,0.903204 1.322316,2.879686 1.919706,4.392183 0.597389,1.5125 1.63581,2.75 2.307601,2.75 0.950008,0 0.954772,-0.26667 0.02144,-1.2 z m 31.606872,-1.32646 c -0.307887,-0.30789 -0.867048,0.24711 -1.242579,1.23333 -0.542685,1.4252 -0.427821,1.54006 0.559795,0.5598 0.683418,-0.67834 0.990671,-1.48524 0.682784,-1.79313 z M 39.29823,94.687119 c -0.67703,-0.273923 -2.02703,-0.290597 -3,-0.03705 -0.97297,0.25354 -0.41903,0.477659 1.23097,0.498038 1.65,0.02038 2.44606,-0.187065 1.76903,-0.460988 z M 70.574088,79.16446 c 1.246762,0.16338 3.0967,-0.548883 4.110975,-1.582807 1.014275,-1.033925 3.869136,-3.047277 6.344136,-4.474117 5.609668,-3.233979 12.133952,-9.76448 9.755184,-9.76448 -0.900433,0 -1.888722,0.407052 -2.196198,0.904559 -0.307477,0.497508 -2.921535,2.253375 -5.809017,3.901928 -2.887483,1.648552 -7.036885,4.655754 -9.220893,6.682669 -2.184008,2.026916 -4.134942,3.193245 -4.33541,2.591842 -0.200468,-0.601403 -0.888552,-0.796058 -1.529076,-0.432567 -0.640525,0.363491 0.157101,-0.758705 1.772501,-2.493769 3.438811,-3.693547 3.00425,-3.937623 -1.879931,-1.055886 -3.8267,2.257808 -3.832953,2.269949 -2.921363,5.672299 0.509067,1.900002 0.856333,2.065382 2.125371,1.012175 0.834285,-0.692395 2.53696,-1.125226 3.783721,-0.961846 z m 29.384826,-2.630421 c -0.07036,-2.693725 -1.69567,-7.575144 -1.894865,-5.690983 -0.05815,0.55 -0.670372,-0.01673 -1.3605,-1.2594 l -1.25478,-2.259401 -3.959785,2.81814 c -2.177882,1.549977 -5.984785,3.662003 -8.459785,4.693391 -6.606163,2.752936 -6.614986,3.139723 -0.05732,2.512751 3.72393,-0.356042 6.773275,-1.285017 8.235435,-2.508902 1.277038,-1.068932 1.759388,-1.302952 1.071888,-0.520045 -1.732839,1.97331 -1.561907,3.017798 0.5,3.055269 0.9625,0.01749 2.603795,0.678077 3.647322,1.467967 2.438316,1.845666 3.620716,1.072843 3.532393,-2.308787 z m -29.02532,-7.599388 c 1.60321,-1.535972 3.13845,-3.647433 3.411646,-4.692136 0.886697,-3.390735 -1.166617,-2.010571 -3.868909,2.600541 -1.450447,2.475 -2.803424,4.5 -3.006616,4.5 -0.203193,0 0.498575,-2.025 1.559484,-4.5 1.060909,-2.475 1.738886,-4.5 1.506616,-4.5 -0.498285,0 -5.506616,8.412412 -5.506616,9.249374 0,1.363882 3.219193,-0.08519 5.904395,-2.657779 z m 10.888512,-1.785044 c 3.138901,-2.306398 6.939899,-5.311092 8.446662,-6.677098 1.506763,-1.366007 3.081763,-2.117347 3.5,-1.669646 0.418237,0.447701 0.197931,1.014895 -0.489569,1.260431 -0.6875,0.245536 -1.25,0.914029 -1.25,1.48554 0,0.649009 0.53791,0.592686 1.432827,-0.150029 0.788055,-0.654028 1.402973,-1.946628 1.366484,-2.872445 -0.03649,-0.925817 0.284335,-2.516281 0.712942,-3.534364 0.738729,-1.754726 0.621809,-1.769627 -2.246604,-0.286312 -1.664239,0.860611 -4.382296,2.706088 -6.040125,4.10106 -1.65783,1.394972 -3.304997,2.536312 -3.660372,2.536312 -1.171499,0 -6.565152,4.356778 -6.565152,5.303068 0,0.509824 1.2375,0.121607 2.75,-0.862704 2.62017,-1.705164 2.681124,-1.705676 1.291097,-0.01083 -0.802396,0.978351 -2.489896,2.170804 -3.75,2.649895 -1.260103,0.479086 -2.291097,1.332207 -2.291097,1.89582 0,1.625089 0.736076,1.281731 6.792907,-3.168698 z m -7.197895,1.051795 c 1.898223,-2.134048 1.896998,-2.136745 -0.345012,-0.759453 -1.2375,0.76021 -2.25,1.723955 -2.25,2.141654 0,1.205727 0.556926,0.909087 2.595012,-1.382201 z m 25.374362,-2.358346 c 0,-0.55 -0.436218,-0.325 -0.969374,0.5 -0.533156,0.825 -0.969374,1.95 -0.969374,2.5 0,0.55 0.436218,0.325 0.969374,-0.5 0.533156,-0.825 0.969374,-1.95 0.969374,-2.5 z m -4.485633,0.25 c 4.401447,-2.219796 4.461704,-2.318831 4.4888,-7.377555 0.018,-3.365511 -0.488004,-5.555352 -1.472541,-6.372445 -1.232187,-1.022624 -1.5,-0.944678 -1.5,0.436572 0,0.924804 0.45,1.403347 1,1.063428 0.584159,-0.36103 1,0.665383 1,2.468285 0,2.389888 -1.071842,4.091763 -4.75,7.542074 -5.374091,5.041186 -5.145176,5.456742 1.233741,2.239641 z m -13.352384,-8.054631 1.965032,-3.804632 -2.588802,1.696248 c -2.521374,1.652068 -4.705051,4.689007 -5.113451,7.111509 -0.415892,2.466945 3.759749,-1.17441 5.737221,-5.003125 z m -5.131357,3.927076 c 0,-0.207656 0.7875,-0.995156 1.75,-1.75 1.586056,-1.243871 1.621426,-1.208501 0.377555,0.377555 -1.306369,1.665748 -2.127555,2.195479 -2.127555,1.372445 z m 0.48289,-7.472888 c -0.702134,-0.702134 -4.44341,3.817452 -4.429053,5.350443 0.0052,0.55 1.143222,-0.289423 2.529047,-1.865384 1.385825,-1.575961 2.240828,-3.144238 1.900006,-3.485059 z m 13.150945,0.129628 c 3.860235,-2.595335 5.010775,-3.922194 4.637783,-5.34852 -0.474969,-1.816281 -0.623303,-1.80199 -3.489726,0.336212 -4.219675,3.147656 -8.781892,7.770137 -8.781892,8.897895 0,1.118119 0.788085,0.716987 7.633835,-3.885587 z m -2.133835,-5.483185 c 3.384931,-2.24411 5.110209,-4.119343 5.34119,-5.805427 0.316259,-2.308589 0.09705,-2.214542 -3,1.287088 -1.837655,2.077713 -4.892208,4.593268 -6.787897,5.590122 -1.895689,0.996853 -3.635255,2.378103 -3.865702,3.069444 -0.494432,1.483296 0.805268,0.835788 8.312409,-4.141227 z m -8.48904,0.954 c 2.120824,-3.478403 2.639619,-6.270114 0.973889,-5.240636 -0.851277,0.526118 -3.984849,6.905762 -3.984849,8.11276 0,1.189383 1.277745,-0.02944 3.01096,-2.872124 z m 18.918755,-4.5 c 0.112675,-2.0039 -1.734699,-1.4398 -2.426875,0.741051 -0.875232,2.757611 0.59608,5.004601 1.599377,2.442573 0.416467,-1.063493 0.788841,-2.496124 0.827498,-3.183624 z m -9.818495,-2.343118 c 3.678498,-3.079813 4.87138,-4.750865 4.818495,-6.75 -0.05136,-1.941465 -0.253312,-2.207606 -0.75,-0.988382 -0.373843,0.917675 -2.479715,3.093209 -4.679715,4.83452 -3.532677,2.796131 -6.448458,6.99698 -4.856556,6.99698 0.318447,0 2.778946,-1.841903 5.467776,-4.093118 z m 8.414645,-7.656882 c -0.376978,-4.2625 -1.157292,-8.2 -1.734032,-8.75 -1.094773,-1.044015 -0.371613,13.752879 0.76176,15.586716 1.358515,2.198122 1.613035,0.408409 0.972272,-6.836716 z m -12.525865,1.936426 c 0,-1.158898 -0.28549,-1.19438 -1.5,-0.186426 -0.825,0.684689 -1.485688,2.202289 -1.468197,3.372445 0.03118,2.085823 0.0606,2.089479 1.5,0.186425 0.807509,-1.067621 1.468197,-2.585221 1.468197,-3.372444 z m 7.952034,-4.186426 c 0.576381,0 1.047966,-0.910374 1.047966,-2.023053 0,-1.892629 -0.151236,-1.923959 -2.345874,-0.485977 -2.108764,1.381715 -4.704425,5.484261 -4.622525,7.306083 0.01738,0.386621 1.120796,-0.534553 2.452034,-2.047053 1.331238,-1.5125 2.892018,-2.75 3.468399,-2.75 z M 86.87231,31.788044 c 0.888788,-1.950676 0.834863,-2.444988 -0.266725,-2.444988 -0.759404,0 -1.84205,1.323326 -2.405878,2.940724 -0.803696,2.305484 -0.746079,2.833638 0.266725,2.444988 0.710527,-0.272654 1.793172,-1.59598 2.405878,-2.940724 z m 5.656889,-4.444988 c 0.339919,-0.55 0.141476,-1 -0.440983,-1 -0.582459,0 -1.059017,0.45 -1.059017,1 0,0.55 0.198442,1 0.440983,1 0.242541,0 0.719098,-0.45 1.059017,-1 z M 89.049255,25.81889 c 0.69572,-0.838291 1.040228,-1.748884 0.765573,-2.023539 -0.90557,-0.90557 -3.785629,0.733694 -3.785629,2.154694 0,1.834583 1.440559,1.772023 3.020056,-0.131155 z m 6.979944,-3.175834 c 0,-1.857136 -0.322406,-2.377594 -1.032783,-1.667217 -0.56803,0.56803 -0.744885,1.78303 -0.393011,2.7 0.926294,2.413883 1.425794,2.052067 1.425794,-1.032783 z M 91.48839,19.135581 c 0.389112,0.389111 0.609774,0.257475 0.490361,-0.292525 -0.39785,-1.832447 1.282124,-7.47485 2.078943,-6.982389 0.431743,0.266832 0.550793,-0.410411 0.264556,-1.504984 -0.573677,-2.1937453 -2.293051,-1.7591251 -2.293051,0.579634 0,0.810824 -1.144561,3.821767 -2.543469,6.690983 -1.990433,4.082458 -2.126143,4.736777 -0.624142,3.009281 1.05563,-1.214112 2.237691,-1.889112 2.626802,-1.5 z M 2.7200304,82.093056 c 0.91809,-4.656073 2.94215,-9.200513 4.77556,-10.722107 2.5284396,-2.098421 2.8169196,-0.539149 0.57525,3.109327 -1.13638,1.849529 -2.52797,5.05028 -3.09243,7.11278 -1.25926,4.601218 -3.14958,5.019731 -2.25838,0.5 z"
     id="path4138"
     inkscape:connector-curvature="0" />
</svg>
